PathFileType	4	(X/Y/Z)	C:/Users/opensim2020/Desktop/walking_exp_matlab/subject01_walking06_straight_01.trc	
DataRate	CameraRate	NumFrames	NumMarkers	Units	OrigDataRate	OrigDataStartFrame	OrigNumFrames	
100.00	100.00	6	43	mm	100.00	797	251	
Frame#	Time	LFHD			RFHD			LBHD			RBHD			C7			T10			CLAV			STRN			RBAK			LSHO			LUPA			LELB			LFRM			LWRA			LWRB			LFIN			RSHO			RUPA			RELB			RFRM			RWRA			RWRB			RFIN			LASI			RASI			LPSI			RPSI			LTHI			LKNE			LTIB			LANK			LHEE			LTOE			RTHI			RKNE			RTIB			RANK			RHEE			RTOE			*39			*40			*41			*42			
		X1	Y1	Z1	X2	Y2	Z2	X3	Y3	Z3	X4	Y4	Z4	X5	Y5	Z5	X6	Y6	Z6	X7	Y7	Z7	X8	Y8	Z8	X9	Y9	Z9	X10	Y10	Z10	X11	Y11	Z11	X12	Y12	Z12	X13	Y13	Z13	X14	Y14	Z14	X15	Y15	Z15	X16	Y16	Z16	X17	Y17	Z17	X18	Y18	Z18	X19	Y19	Z19	X20	Y20	Z20	X21	Y21	Z21	X22	Y22	Z22	X23	Y23	Z23	X24	Y24	Z24	X25	Y25	Z25	X26	Y26	Z26	X27	Y27	Z27	X28	Y28	Z28	X29	Y29	Z29	X30	Y30	Z30	X31	Y31	Z31	X32	Y32	Z32	X33	Y33	Z33	X34	Y34	Z34	X35	Y35	Z35	X36	Y36	Z36	X37	Y37	Z37	X38	Y38	Z38	X39	Y39	Z39	X40	Y40	Z40	X41	Y41	Z41	X42	Y42	Z42	X43	Y43	Z43	

32	0.310	1408.33594	-1146.92871	1659.27759	1521.30334	-1124.79504	1664.61121	1423.56946	-1253.67419	1595.49475	1543.25452	-1233.64001	1599.63806	1446.09326	-1273.68567	1417.87500	1439.68530	-1308.86072	1123.03259	1458.49023	-1129.60339	1349.35950	1450.40979	-1087.93799	1194.96240	1509.76001	-1337.52209	1221.74829	1295.00000	-1175.88550	1386.80774	1204.24915	-1160.66797	1206.57666	1199.61719	-1132.60950	1054.76221	1202.97388	-1050.35083	969.73871	1261.86316	-945.74103	896.96924	1220.95190	-982.27472	869.59955	1237.46228	-911.13879	828.33093	1603.52771	-1209.09692	1372.08984	1690.51453	-1289.27332	1173.41760	1691.09326	-1295.81226	1048.97278	1720.60352	-1280.60632	929.14703	1706.60571	-1209.53772	807.45856	1740.53394	-1257.67065	810.51221	1741.91174	-1224.81958	732.15894	1338.13159	-1126.33423	914.13568	1555.28931	-1134.23645	923.27753	1384.03027	-1314.42249	931.36011	1530.26587	-1319.92285	933.70404	1293.56873	-1213.25012	583.92828	1306.17383	-1255.55139	452.82529	1290.82043	-1381.29919	309.67828	1334.53052	-1512.65137	128.87448	1378.40430	-1570.23364	132.99493	1367.24182	-1410.71057	24.29328	1628.94873	-1131.27771	603.30505	1611.33313	-1076.15491	455.31793	1627.94580	-1094.29565	280.13547	1593.81787	-1076.68726	70.55285	1540.86060	-1116.35474	27.94131	1604.05334	-934.48889	38.97696	1501.04944	-1144.33459	1696.32690	-3101.85547	1973.16919	1023.40198	-3140.53442	2012.55212	1022.01471			 
33	0.320	1412.61121	-1139.27258	1660.79834	1525.40100	-1116.60498	1666.26599	1428.28674	-1245.80371	1596.76257	1547.91284	-1225.16187	1600.91260	1450.56934	-1265.14526	1418.89893	1443.00732	-1299.38855	1124.15613	1462.33801	-1120.56140	1351.02429	1453.66907	-1078.30127	1196.82751	1513.69336	-1327.73169	1222.26477	1299.05396	-1167.67078	1388.50366	1207.79041	-1154.46216	1208.02417	1202.16882	-1127.84399	1056.36353	1204.59412	-1046.36230	970.42664	1261.63367	-942.78821	895.97607	1221.55737	-979.45282	869.24823	1236.85852	-908.60944	827.26215	1607.62341	-1199.65784	1372.85120	1694.55237	-1277.68384	1173.24548	1694.85217	-1283.36292	1048.91602	1723.98157	-1267.34155	929.25677	1709.27258	-1195.73804	807.90924	1743.50684	-1243.63660	810.68933	1744.66370	-1210.58911	732.54205	1340.97156	-1117.16467	915.29700	1558.02783	-1124.27136	924.97174	1386.28699	-1304.42627	932.81696	1532.58948	-1309.94812	935.73462	1295.60449	-1199.27502	584.33691	1307.33203	-1239.86401	452.97638	1292.31580	-1369.99170	313.38306	1335.08240	-1505.25378	135.23383	1380.31519	-1560.94519	142.10359	1367.24097	-1409.77307	24.13018	1631.91406	-1120.76721	604.32056	1614.00037	-1069.90198	454.62872	1630.84692	-1090.88257	279.55984	1594.70886	-1076.11340	70.16030	1541.91846	-1116.34998	28.55556	1605.08667	-933.83862	37.80779	1505.28186	-1136.26501	1697.94153	-3101.94409	1973.22656	1023.42926	-3140.67334	2012.56567	1021.99139			 
34	0.330	1416.79456	-1131.47363	1662.36084	1532.60413	-1099.31067	1669.75488	1432.93091	-1237.67566	1597.91650	1552.47302	-1216.67896	1602.20520	1454.91833	-1256.49756	1419.96680	1446.10278	-1290.04956	1125.42017	1466.00317	-1111.54346	1352.73901	1456.70508	-1068.82666	1198.67297	1517.54993	-1318.02161	1223.05798	1302.98999	-1159.37451	1390.27148	1211.38367	-1148.29016	1209.53674	1204.79443	-1122.97815	1058.07935	1206.24414	-1042.49023	971.11700	1262.02063	-939.69373	894.79907	1222.06982	-976.79150	868.79578	1236.39575	-906.63623	826.13593	1611.65027	-1190.30701	1373.88464	1698.47583	-1266.15662	1173.38879	1698.58472	-1270.81677	1049.11975	1727.34644	-1253.94495	929.66595	1711.95581	-1181.79895	808.63702	1746.56836	-1229.48999	811.23395	1747.12000	-1196.05396	732.91962	1344.36365	-1107.24658	916.88684	1561.02002	-1114.56445	926.64111	1388.83716	-1294.56067	934.41357	1535.29700	-1300.28149	938.06677	1297.41528	-1184.55688	584.66174	1307.91223	-1223.23682	453.21039	1293.67151	-1357.69775	317.61319	1336.08740	-1496.54260	142.26855	1382.92175	-1549.83752	151.60384	1367.45081	-1408.93408	24.19905	1635.38367	-1111.19116	604.87274	1616.58289	-1064.48071	453.99997	1632.92249	-1088.34058	279.20251	1595.35547	-1075.89063	70.11240	1542.64954	-1116.51733	28.63854	1604.96619	-933.27234	36.79398	1509.47266	-1128.39148	1699.46045	-3101.94482	1973.12891	1023.35626	-3140.57056	2012.55713	1022.05505			 
35	0.340	1420.93579	-1123.77869	1663.88794	1533.59631	-1100.13098	1669.27124	1437.40198	-1229.58447	1599.06421	1556.84058	-1208.12927	1603.34058	1459.13684	-1247.65759	1421.00635	1449.16736	-1280.78491	1126.78613	1469.56616	-1102.50623	1354.43994	1459.74133	-1059.39380	1200.47546	1521.37573	-1308.33655	1223.87183	1306.87390	-1151.10364	1392.14417	1214.53711	-1141.92151	1211.37500	1207.45068	-1118.09900	1059.82739	1207.80078	-1038.91211	971.73035	1262.67188	-937.44556	893.29523	1222.54541	-974.64185	868.36127	1235.84509	-904.91760	824.59967	1615.46606	-1180.82971	1374.94922	1702.22937	-1254.62134	1173.70239	1702.27881	-1258.23120	1049.54749	1730.67371	-1240.41162	930.20557	1714.56982	-1167.72925	809.55695	1749.50610	-1215.16187	811.94165	1749.70239	-1181.20068	733.78436	1347.53882	-1097.99976	918.46716	1564.13635	-1105.10583	928.20502	1391.68738	-1284.91589	936.10553	1538.02026	-1290.34766	939.70538	1298.93958	-1169.26062	584.92505	1308.22021	-1205.80127	453.42471	1295.06165	-1344.52637	322.04797	1337.21790	-1486.97131	149.89331	1386.18530	-1537.56787	161.45641	1368.06409	-1408.41138	24.15343	1638.69543	-1102.55322	606.13818	1619.00354	-1059.96277	453.80600	1634.24524	-1086.09070	279.07639	1595.52295	-1075.67590	70.06393	1543.11426	-1116.61035	28.67276	1604.36877	-932.71149	35.79396	1513.54102	-1120.51086	1700.78333	-3101.85425	1973.09290	1023.43457	-3140.62378	2012.58093	1022.11920			 
36	0.350	1424.90454	-1115.94250	1665.38403	1537.34705	-1091.93823	1670.92444	1441.77234	-1221.57495	1600.25952	1561.10596	-1199.67725	1604.43579	1463.32397	-1238.77979	1422.05688	1452.27039	-1271.53674	1128.08142	1472.97241	-1093.57813	1356.07080	1462.52478	-1050.21997	1202.09814	1525.23083	-1298.68762	1224.70569	1310.49390	-1143.06970	1393.84131	1217.41724	-1135.43933	1213.22681	1210.07776	-1113.38586	1061.62183	1209.39111	-1035.54163	972.13501	1262.99817	-935.02252	891.94189	1222.74817	-972.74554	867.99713	1235.36108	-903.60675	823.02411	1619.19507	-1171.13354	1376.07654	1705.93872	-1243.08997	1174.17529	1705.80664	-1245.66272	1050.10889	1733.88647	-1226.78662	930.91248	1717.20264	-1153.50623	810.62628	1752.44592	-1200.75159	812.72705	1752.17700	-1166.28833	734.64319	1350.83105	-1089.08191	920.02606	1567.25903	-1095.75464	929.69037	1394.76184	-1275.57544	937.76776	1541.06311	-1280.89832	941.54810	1300.30591	-1153.58289	585.25488	1308.62915	-1187.98364	453.57187	1296.41785	-1330.60693	326.82867	1338.11914	-1476.68860	157.40535	1388.72681	-1523.92346	171.61514	1369.59399	-1408.80493	24.08126	1641.15967	-1096.74524	606.59351	1621.28345	-1055.91846	453.63397	1634.95874	-1083.91211	278.88959	1595.49634	-1075.49341	70.17088	1543.31055	-1116.58069	28.78498	1603.93457	-932.15442	34.73666	1517.64404	-1112.33484	1702.20703	-3101.87622	1973.17859	1023.36603	-3140.64990	2012.60583	1022.00446			 
37	0.360	1428.90540	-1107.98779	1666.63269	1541.18457	-1083.73962	1672.09631	1445.93665	-1213.45898	1601.27112	1565.19617	-1191.18262	1605.35828	1467.37036	-1229.91968	1423.05176	1455.45300	-1262.41284	1129.24036	1476.15686	-1084.64404	1357.49719	1465.27808	-1041.00305	1203.57007	1529.22437	-1289.07605	1225.64282	1314.10815	-1134.90271	1395.53394	1220.04517	-1128.79663	1215.01526	1212.14038	-1109.35657	1063.10425	1210.53821	-1032.53125	972.69391	1263.04932	-932.43329	890.65271	1223.13879	-970.87714	867.31354	1234.92627	-902.47791	821.24506	1622.68054	-1161.40552	1377.18616	1709.61853	-1231.54651	1174.65637	1709.25671	-1233.05994	1050.66858	1737.04639	-1213.10278	931.63245	1719.76294	-1139.13489	811.88104	1755.24292	-1186.23181	813.73352	1754.71558	-1151.38342	735.68536	1354.50903	-1079.63074	921.82410	1570.30359	-1086.57666	930.90466	1397.99207	-1266.53174	939.30359	1544.21973	-1271.75818	943.31506	1301.41614	-1137.45178	585.30066	1309.22351	-1170.05347	453.62936	1297.94141	-1315.93066	331.51508	1339.41748	-1464.34814	164.11079	1390.43298	-1509.70520	181.46071	1370.59802	-1406.29395	27.06857	1643.01208	-1092.31177	606.70630	1623.41528	-1052.32947	453.40854	1635.70154	-1082.16333	278.92493	1595.46765	-1075.28442	70.19240	1543.29492	-1116.47339	28.87501	1603.83044	-931.74530	34.10245	1521.61938	-1104.19971	1703.36011	-3101.77759	1973.17517	1023.35791	-3140.62378	2012.50879	1021.91510			 
